<mxfile host="app.diagrams.net" modified="2023-06-27T02:09:17.981Z" agent="Mozilla/5.0 (Macintosh; Intel Mac OS X 10_15_7) AppleWebKit/537.36 (KHTML, like Gecko) Chrome/114.0.0.0 Safari/537.36" etag="B1kqxiUy6QMckhRX3av7" version="21.5.0" type="github">
  <diagram name="第 1 页" id="sbkb4hXFQLxR07IRilG2">
    <mxGraphModel dx="1306" dy="812" grid="1" gridSize="10" guides="1" tooltips="1" connect="1" arrows="1" fold="1" page="1" pageScale="1" pageWidth="827" pageHeight="1169" math="0" shadow="0">
      <root>
        <mxCell id="0" />
        <mxCell id="1" parent="0" />
        <mxCell id="Ctg1ZKv8Jpn2vrHf4hRV-12" style="edgeStyle=orthogonalEdgeStyle;rounded=0;orthogonalLoop=1;jettySize=auto;html=1;fontColor=#000000;" parent="1" source="Ctg1ZKv8Jpn2vrHf4hRV-1" target="Ctg1ZKv8Jpn2vrHf4hRV-3" edge="1">
          <mxGeometry relative="1" as="geometry" />
        </mxCell>
        <mxCell id="WtB-qjn0zmHT_pskbnio-2" style="edgeStyle=orthogonalEdgeStyle;rounded=0;orthogonalLoop=1;jettySize=auto;html=1;entryX=0.5;entryY=0;entryDx=0;entryDy=0;" parent="1" source="Ctg1ZKv8Jpn2vrHf4hRV-1" target="WtB-qjn0zmHT_pskbnio-1" edge="1">
          <mxGeometry relative="1" as="geometry" />
        </mxCell>
        <mxCell id="Ctg1ZKv8Jpn2vrHf4hRV-1" value="&lt;font color=&quot;#cc0000&quot;&gt;Comment：&lt;/font&gt;客来CSM任务底层模型V2.0&lt;span data-sl-origin-json=&quot;JTVCJTdCJTIyYmdDb2xvciUyMiUzQSUyMiUyM0ZGRTVDNyUyMiUyQyUyMnRleHQlMjIlM0ElMjIlRTUlQUUlQTIlRTYlOUQlQTUlRTQlQkIlQkIlRTUlOEElQTElRTUlQkElOTUlRTUlQjElODIlRTYlQTglQTElRTUlOUUlOEIlMjIlN0QlNUQ=&quot;&gt;&lt;/span&gt;&lt;font color=&quot;#cc0000&quot;&gt;&lt;br&gt;File&lt;/font&gt;：app_cust_boai_klein_csm_3task_det_d&lt;span style=&quot;background-color: initial;&quot;&gt;.py&lt;/span&gt;&lt;br&gt;&lt;font color=&quot;#cc0000&quot;&gt;Target Table&lt;/font&gt;：app.app_cust_boai_klein_csm_3task_det_d" style="rounded=1;whiteSpace=wrap;html=1;align=left;fillColor=#FFCCCC;" parent="1" vertex="1">
          <mxGeometry x="220" y="210" width="330" height="60" as="geometry" />
        </mxCell>
        <mxCell id="Ctg1ZKv8Jpn2vrHf4hRV-2" value="&lt;font color=&quot;#cc0000&quot;&gt;Comment&lt;/font&gt;：&lt;font color=&quot;#cc0000&quot;&gt;&lt;br&gt;File&lt;/font&gt;：&lt;br&gt;&lt;font color=&quot;#cc0000&quot;&gt;Target Table&lt;/font&gt;：" style="rounded=1;whiteSpace=wrap;html=1;align=left;" parent="1" vertex="1">
          <mxGeometry x="510" y="130" width="300" height="70" as="geometry" />
        </mxCell>
        <mxCell id="Ctg1ZKv8Jpn2vrHf4hRV-3" value="&lt;font color=&quot;#cc0000&quot;&gt;Comment&lt;/font&gt;：CSM考核指标V2.0&lt;br&gt;&lt;font color=&quot;#cc0000&quot;&gt;File&lt;/font&gt;：app_cust_boai_csm_efficiency_sum_d&lt;span style=&quot;background-color: initial;&quot;&gt;.py&lt;/span&gt;&lt;br&gt;&lt;font color=&quot;#cc0000&quot;&gt;Target Table&lt;/font&gt;：app.app_cust_boai_csm_efficiency_sum_d" style="rounded=1;whiteSpace=wrap;html=1;align=left;" parent="1" vertex="1">
          <mxGeometry x="20" y="340" width="340" height="70" as="geometry" />
        </mxCell>
        <mxCell id="WtB-qjn0zmHT_pskbnio-4" value="" style="edgeStyle=orthogonalEdgeStyle;rounded=0;orthogonalLoop=1;jettySize=auto;html=1;" parent="1" source="WtB-qjn0zmHT_pskbnio-1" target="WtB-qjn0zmHT_pskbnio-3" edge="1">
          <mxGeometry relative="1" as="geometry" />
        </mxCell>
        <mxCell id="WtB-qjn0zmHT_pskbnio-1" value="&lt;font color=&quot;#cc0000&quot;&gt;Comment&lt;/font&gt;：【续签】CSM触达后【当月/CSM处理名单月份】 工作结果明细&lt;br&gt;&lt;font color=&quot;#cc0000&quot;&gt;File&lt;/font&gt;：app_cust_boai_renewal_month_det_d&lt;span style=&quot;background-color: initial;&quot;&gt;.py&lt;/span&gt;&lt;br&gt;&lt;font color=&quot;#cc0000&quot;&gt;Target Table&lt;/font&gt;：app.app_cust_boai_renewal_month_det_d" style="rounded=1;whiteSpace=wrap;html=1;align=left;" parent="1" vertex="1">
          <mxGeometry x="390" y="340" width="340" height="70" as="geometry" />
        </mxCell>
        <mxCell id="WtB-qjn0zmHT_pskbnio-3" value="&lt;font color=&quot;#cc0000&quot;&gt;Comment&lt;/font&gt;：【续签】CSM触达后【当月/CSM处理名单月份】 工作结果汇总&lt;br&gt;&lt;font color=&quot;#cc0000&quot;&gt;File&lt;/font&gt;：app_cust_boai_renewal_month_sum_d&lt;span style=&quot;background-color: initial;&quot;&gt;.py&lt;/span&gt;&lt;br&gt;&lt;font color=&quot;#cc0000&quot;&gt;Target Table&lt;/font&gt;：app.app_cust_boai_renewal_month_sum_d" style="rounded=1;whiteSpace=wrap;html=1;align=left;" parent="1" vertex="1">
          <mxGeometry x="390" y="450" width="340" height="70" as="geometry" />
        </mxCell>
      </root>
    </mxGraphModel>
  </diagram>
</mxfile>
